<svg width="22" height="22" viewBox="0 0 22 22" fill="none" xmlns="http://www.w3.org/2000/svg">
<path fill-rule="evenodd" clip-rule="evenodd" d="M10.5304 18.5409C10.5304 18.5409 5 13.5639 5 9.02877C5 7.42984 5.63214 5.8964 6.75736 4.76579C7.88258 3.63517 9.4087 3 11 3C12.5913 3 14.1174 3.63517 15.2426 4.76579C16.3679 5.8964 17 7.42984 17 9.02877C17 13.5639 11.6374 18.5409 11.6374 18.5409C11.3344 18.8212 10.8357 18.8182 10.5304 18.5409ZM11 11.6664C11.3447 11.6664 11.6861 11.5981 12.0045 11.4656C12.323 11.333 12.6124 11.1388 12.8562 10.8938C13.0999 10.6489 13.2933 10.3581 13.4252 10.0381C13.5571 9.71813 13.625 9.37515 13.625 9.02877C13.625 8.6824 13.5571 8.33942 13.4252 8.01941C13.2933 7.69941 13.0999 7.40864 12.8562 7.16372C12.6124 6.9188 12.323 6.72451 12.0045 6.59196C11.6861 6.45941 11.3447 6.39119 11 6.39119C10.3038 6.39119 9.63613 6.66907 9.14384 7.16372C8.65156 7.65836 8.375 8.32924 8.375 9.02877C8.375 9.72831 8.65156 10.3992 9.14384 10.8938C9.63613 11.3885 10.3038 11.6664 11 11.6664Z" fill="url(#paint0_linear_2805_32351)"/>
<defs>
<linearGradient id="paint0_linear_2805_32351" x1="11" y1="3" x2="11" y2="18.75" gradientUnits="userSpaceOnUse">
<stop stop-color="#FE6731"/>
<stop offset="1" stop-color="#FE6731"/>
</linearGradient>
</defs>
</svg>
