<svg xmlns="http://www.w3.org/2000/svg" viewBox="0 0 33 33" shape-rendering="crispEdges"><path fill="#EAEAEA" d="M0 0h33v33H0z"/><path stroke="#626262" d="M2 2.5h7m1 0h5m1 0h1m2 0h2m3 0h7M2 3.5h1m5 0h1m3 0h1m1 0h1m3 0h5m1 0h1m5 0h1M2 4.5h1m1 0h3m1 0h1m4 0h3m2 0h5m1 0h1m1 0h3m1 0h1M2 5.5h1m1 0h3m1 0h1m1 0h1m1 0h1m3 0h1m1 0h1m1 0h2m2 0h1m1 0h3m1 0h1M2 6.5h1m1 0h3m1 0h1m1 0h1m3 0h5m3 0h1m1 0h1m1 0h3m1 0h1M2 7.5h1m5 0h1m1 0h2m1 0h1m1 0h2m1 0h4m2 0h1m5 0h1M2 8.5h7m1 0h1m1 0h1m1 0h1m1 0h1m1 0h1m1 0h1m1 0h1m1 0h7M10 9.5h1m3 0h1m1 0h1m1 0h2m1 0h2M2 10.5h1m3 0h1m1 0h4m1 0h1m1 0h2m2 0h2m1 0h6m2 0h1M4 11.5h1m2 0h1m1 0h1m2 0h1m4 0h4m2 0h8M5 12.5h2m1 0h2m3 0h1m1 0h3m2 0h1m1 0h5m3 0h1M3 13.5h1m1 0h1m1 0h1m2 0h2m3 0h1m1 0h5m4 0h2m1 0h2M2 14.5h1m2 0h1m1 0h3m1 0h1m3 0h1m3 0h1m1 0h3m5 0h1M2 15.5h6m1 0h1m2 0h1m2 0h4m4 0h2m1 0h5M3 16.5h1m2 0h4m1 0h1m1 0h1m3 0h3m3 0h2m1 0h3m1 0h1M3 17.5h1m1 0h1m1 0h1m1 0h1m3 0h1m2 0h1m1 0h7m4 0h2M2 18.5h8m1 0h1m3 0h2m2 0h1m2 0h2m1 0h1m3 0h1M2 19.5h3m1 0h1m2 0h6m2 0h2m3 0h1m1 0h4m1 0h2M6 20.5h1m1 0h1m5 0h5m7 0h1m1 0h1m1 0h1M4 21.5h1m10 0h1m1 0h1m1 0h1m2 0h1m6 0h2M2 22.5h4m2 0h1m3 0h4m3 0h9m2 0h1M10 23.5h1m1 0h2m1 0h6m1 0h1m3 0h1m3 0h1M2 24.5h7m1 0h2m5 0h1m2 0h3m1 0h1m1 0h3m1 0h1M2 25.5h1m5 0h1m5 0h1m1 0h2m1 0h4m3 0h1m2 0h2M2 26.5h1m1 0h3m1 0h1m1 0h1m1 0h1m1 0h3m2 0h1m1 0h7m1 0h1M2 27.5h1m1 0h3m1 0h1m2 0h1m5 0h2m1 0h1m1 0h2m1 0h1m4 0h1M2 28.5h1m1 0h3m1 0h1m2 0h1m1 0h1m3 0h1m2 0h1m1 0h1m4 0h4M2 29.5h1m5 0h1m3 0h1m1 0h2m1 0h1m1 0h1m2 0h1m1 0h1m1 0h2m1 0h2M2 30.5h7m1 0h1m1 0h2m2 0h1m2 0h1m2 0h1m2 0h2m2 0h1"/></svg>
